
  <svg id="LI" width="50%" height = "50" viewbox = "0 0 2048 2048">
  	<g>
  		<path class="fil0" d="M1792 1775.66l0 -1503.32 0 -16.3406 -16.3406 0 -1503.32 0 -16.3406 0 0 16.3406 0 1503.32 0 16.3406 16.3406 0 1503.32 0 16.3406 0 0 -16.3406zm-479.437 -1266.05l204.769 0 16.3417 0 0 16.3406 0 220.931 0 16.3406 -16.3417 0 -204.769 0 -16.3417 0 0 -16.3406 0 -220.931 0 -16.3406 16.3417 0zm-781.896 0l190.916 0 16.3406 0 0 16.3406 0 788.847 386.254 0 16.3406 0 0 16.3406 0 190.917 0 16.3406 -16.3406 0 -402.594 0 -119.127 0 -71.7886 0 -16.3417 0 0 -16.3406 0 -996.105 0 -16.3406 16.3417 0zm781.896 403.344l204.769 0 16.3417 0 0 16.3417 0 592.759 0 16.3406 -16.3417 0 -204.769 0 -16.3417 0 0 -16.3406 0 -592.759 0 -16.3417 16.3417 0z"/>
  	<!-- <rect height="2048" width="2048"/> -->
  		<rect height="2048" width="2048" x="0" y="0" fill="transparent"  stroke="none"/>
  	</g>
  </svg>